Coordinates
version=1
nRows=11
nColumns=40
inDegrees=yes

Units are S.I. units (second, meters, Newtons, ...)
If the header above contains a line with 'inDegrees', this indicates whether rotational values are in degrees (yes) or radians (no).

endheader
time	pelvis_tilt	pelvis_list	pelvis_rotation	pelvis_tx	pelvis_ty	pelvis_tz	hip_flexion_r	hip_adduction_r	hip_rotation_r	knee_angle_r	knee_angle_r_beta	ankle_angle_r	subtalar_angle_r	mtp_angle_r	hip_flexion_l	hip_adduction_l	hip_rotation_l	knee_angle_l	knee_angle_l_beta	ankle_angle_l	subtalar_angle_l	mtp_angle_l	lumbar_extension	lumbar_bending	lumbar_rotation	arm_flex_r	arm_add_r	arm_rot_r	elbow_flex_r	pro_sup_r	wrist_flex_r	wrist_dev_r	arm_flex_l	arm_add_l	arm_rot_l	elbow_flex_l	pro_sup_l	wrist_flex_l	wrist_dev_l
      2.06000000	     -5.28532844	     -9.36493995	      1.76220167	     -0.34560811	      0.82582410	     -0.97910046	     56.62557598	      2.38381707	     -4.72687342	     11.91622286	      0.20797732	    -18.39023083	      0.00000000	      0.00000000	     50.97600471	     -7.67333505	      1.47548265	     72.94041860	      1.27305046	     17.27817130	      0.00000000	      0.00000000	    -10.80717619	      3.13258977	      4.25542961	     89.91961713	    -12.01552995	     17.22086480	     32.70901007	     73.91307542	      0.00000000	      0.00000000	     89.94376229	    -27.74834961	     20.62457609	     45.84016837	     78.35419570	      0.00000000	      0.00000000
      2.06500000	     -5.37614736	     -9.26838592	      1.77738556	     -0.34593431	      0.82473219	     -0.97900790	     56.74733198	      2.30459808	     -4.51372182	     11.90436037	      0.20777028	    -18.22900717	      0.00000000	      0.00000000	     51.20439253	     -7.58437102	      1.44477586	     73.12742533	      1.27631435	     17.22332973	      0.00000000	      0.00000000	    -10.78726966	      2.97749345	      4.26246025	     89.91966225	    -12.15988575	     16.65308404	     32.59798204	     80.05310016	      0.00000000	      0.00000000	     89.94411979	    -27.55653503	     19.88404595	     45.71861097	     83.69879422	      0.00000000	      0.00000000
      2.07000000	     -5.34833024	     -9.29456965	      1.84030633	     -0.34612963	      0.82386114	     -0.97892011	     56.76777394	      2.27464281	     -4.69022222	     11.93844437	      0.20836516	    -18.38802868	      0.00000000	      0.00000000	     51.32915480	     -7.61698753	      1.45472264	     73.33465604	      1.27993120	     17.26873278	      0.00000000	      0.00000000	    -10.90134085	      2.98278186	      4.20415842	     89.91989111	    -12.15334532	     16.98233615	     32.72554667	     78.05231846	      0.00000000	      0.00000000	     89.94444292	    -27.60403827	     19.90515260	     45.83956691	     83.83240790	      0.00000000	      0.00000000
      2.07500000	     -5.38139748	     -9.32717629	      1.93385048	     -0.34643527	      0.82287532	     -0.97884923	     56.78050823	      2.24097334	     -4.79130330	     11.81734688	      0.20625161	    -18.32474977	      0.00000000	      0.00000000	     51.45331348	     -7.62323012	      1.44085114	     73.46332791	      1.28217695	     17.58871146	      0.00000000	      0.00000000	    -10.94927990	      3.01351414	      4.04349408	     89.91945226	    -11.95633938	     17.47324522	     32.76222648	     71.96509709	      0.00000000	      0.00000000	     89.94451151	    -27.68812053	     20.52042415	     46.03975943	     77.83227067	      0.00000000	      0.00000000
      2.08000000	     -5.47866696	     -9.32910894	      1.92651953	     -0.34665354	      0.82176566	     -0.97866443	     56.95190357	      2.24072682	     -4.72250466	     11.87963306	      0.20733871	    -18.34362883	      0.00000000	      0.00000000	     51.72533584	     -7.67617034	      1.40281355	     73.72577229	      1.28675747	     17.56703268	      0.00000000	      0.00000000	    -10.91944217	      2.96814501	      4.06670238	     89.91954157	    -12.05359881	     16.70079747	     32.67281631	     78.94720977	      0.00000000	      0.00000000	     89.94492512	    -27.59982168	     19.77130481	     46.00231965	     84.03868752	      0.00000000	      0.00000000
      2.08500000	     -5.51430262	     -9.39450968	      2.01512748	     -0.34696385	      0.82072890	     -0.97849926	     57.00253889	      2.22091830	     -4.78811288	     11.81686614	      0.20624322	    -18.41930561	      0.00000000	      0.00000000	     51.95844462	     -7.69440302	      1.47795336	     73.96023376	      1.29084959	     17.62914564	      0.00000000	      0.00000000	    -10.95777718	      3.01618969	      4.00790565	     89.92059283	    -11.97036306	     17.18231635	     32.73823684	     74.48603259	      0.00000000	      0.00000000	     89.94498194	    -27.60406704	     20.32003963	     46.14860400	     79.42488343	      0.00000000	      0.00000000
      2.09000000	     -5.58141420	     -9.32597070	      2.03082498	     -0.34715621	      0.81970746	     -0.97843549	     57.13839684	      2.15341842	     -4.78666003	     11.89811260	      0.20766124	    -18.22216838	      0.00000000	      0.00000000	     52.15854050	     -7.68538393	      1.34776292	     74.15013905	      1.29416407	     17.62819960	      0.00000000	      0.00000000	    -10.96012274	      2.90583442	      4.02851895	     89.92040098	    -12.06688887	     16.68912946	     32.71215205	     79.08981988	      0.00000000	      0.00000000	     89.94539732	    -27.45880689	     19.73552321	     46.06786638	     83.70447565	      0.00000000	      0.00000000
      2.09500000	     -5.54567557	     -9.35545732	      2.13202653	     -0.34738349	      0.81889843	     -0.97843548	     57.12456261	      2.09867947	     -4.91640502	     11.89045636	      0.20752761	    -18.26595955	      0.00000000	      0.00000000	     52.25485317	     -7.66887764	      1.39758008	     74.33372854	      1.29736831	     17.75722698	      0.00000000	      0.00000000	    -11.08053376	      2.93042016	      3.84355507	     89.92005132	    -11.96509916	     16.42516356	     32.62037437	     79.81184885	      0.00000000	      0.00000000	     89.94550655	    -27.58537822	     19.72198739	     46.16887718	     83.57933922	      0.00000000	      0.00000000
      2.10000000	     -5.63749648	     -9.32883568	      2.15075471	     -0.34768252	      0.81768409	     -0.97830832	     57.29281883	      2.05150667	     -4.84794452	     11.92395210	      0.20811222	    -18.33228593	      0.00000000	      0.00000000	     52.52228915	     -7.65508274	      1.37179903	     74.59116284	      1.30186138	     17.81034962	      0.00000000	      0.00000000	    -11.06511751	      2.87211043	      3.83589706	     89.92032327	    -11.97646879	     16.60666279	     32.65660367	     78.79007813	      0.00000000	      0.00000000	     89.94567869	    -27.53515337	     19.61640266	     46.26073587	     83.73448148	      0.00000000	      0.00000000
      2.10500000	     -5.64655878	     -9.37782247	      2.24707616	     -0.34795723	      0.81672251	     -0.97828863	     57.31253294	      2.00283981	     -4.94975857	     11.87465263	      0.20725179	    -18.33768017	      0.00000000	      0.00000000	     52.68256095	     -7.63008005	      1.45509619	     74.76135978	      1.30483188	     17.90944777	      0.00000000	      0.00000000	    -11.12875382	      2.89642394	      3.74054058	     89.92057081	    -11.97041084	     16.30015851	     32.60427675	     80.35387945	      0.00000000	      0.00000000	     89.94589203	    -27.49049969	     19.58854635	     46.30983793	     83.23289706	      0.00000000	      0.00000000
      2.11000000	     -5.70756224	     -9.35996873	      2.30060063	     -0.34820800	      0.81571288	     -0.97824450	     57.41205226	      1.94157548	     -4.95372847	     11.87959103	      0.20733798	    -18.23061990	      0.00000000	      0.00000000	     52.88353290	     -7.59596773	      1.44657172	     74.95021200	      1.30812797	     17.97058960	      0.00000000	      0.00000000	    -11.13777833	      2.86450581	      3.68908157	     89.92062612	    -11.92954536	     16.51434579	     32.60177112	     78.36644089	      0.00000000	      0.00000000	     89.94614720	    -27.48099294	     19.49355323	     46.35816578	     83.76057015	      0.00000000	      0.00000000
